#!OML:ASF I:\Actors\actors\Patient Classification 2\Patient 1\Session 1\actor1.ASF
:FULLY-SPECIFIED
:DEGREES
268
root -0.531166 18.6349 5.88891 -1.86695 11.8566 -1.75672
lowerback 3.61915 4.81458 5.7815
upperback -2.42219 6.85174 2.37903
thorax -4.15831 3.27168 -1.21632
lowerneck -10.1121 -4.88864 -0.404432
upperneck 10.7713 -5.37624 -9.25378
head 4.64592 -3.24342 -3.16609
rclavicle 2.76311e-014 2.62396e-014
rhumerus 26.0436 9.54597 -47.9932
rradius 140.488
rwrist -12.8838
rhand -17.029 -14.6056
rfingers 7.12502
rthumb 9.20732 -44.3846
lclavicle 2.76311e-014 2.62396e-014
lhumerus -48.4311 -4.04521 92.05
lradius 51.8703
lwrist -3.29255
lhand -9.27415 -25.9346
lfingers 7.12502
lthumb 16.6825 3.36849
rfemur 0 0 0
rtibia 0
rfoot 0 0
rtoes 0
lfemur -5.77709 -7.67664 -12.7741
ltibia 24.6677
lfoot -19.2311 2.69417
ltoes -56.8886
269
root -0.52873 18.6349 5.88639 -1.84163 11.8566 -1.76277
lowerback 3.64529 4.91549 5.84994
upperback -2.47247 6.98719 2.2022
thorax -4.18764 3.3322 -1.44615
lowerneck -9.9864 -4.98658 -0.112865
upperneck 10.7603 -5.56965 -9.17157
head 4.60419 -3.3189 -3.19412
rclavicle -1.72943e-014 1.03368e-014
rhumerus 25.7456 9.19823 -48.0934
rradius 140.499
rwrist -12.8802
rhand -17.0417 -14.6611
rfingers 7.12502
rthumb 9.19511 -44.4406
lclavicle -1.72943e-014 1.03368e-014
lhumerus -48.5226 -4.56918 91.871
lradius 51.9052
lwrist -3.11352
lhand -9.3546 -25.9073
lfingers 7.12502
lthumb 16.6051 3.4023
rfemur 0 0 0
rtibia 0
rfoot 0 0
rtoes 0
lfemur -5.81594 -7.69482 -12.7717
ltibia 24.6674
lfoot -19.2279 2.70442
ltoes -56.8615
270
root -0.526285 18.6349 5.88516 -1.82916 11.8375 -1.75474
lowerback 3.87217 4.96255 5.9859
upperback -2.59364 7.07753 2.06661
thorax -4.40453 3.36113 -1.692
lowerneck -10.0343 -5.07005 -0.312204
upperneck 10.9666 -5.67436 -8.85949
head 4.68617 -3.36475 -3.0798
rclavicle 2.48481e-014 -1.35174e-014
rhumerus 25.458 9.11193 -48.1735
rradius 140.528
rwrist -12.7733
rhand -17.1289 -14.7028
rfingers 7.12502
rthumb 9.11098 -44.486
lclavicle 2.48481e-014 -1.35174e-014
lhumerus -48.7113 -4.86999 91.7287
lradius 51.9405
lwrist -3.04537
lhand -9.3859 -25.8981
lfingers 7.12502
lthumb 16.5749 3.41407
rfemur 0 0 0
rtibia 0
rfoot 0 0
rtoes 0
lfemur -5.82106 -7.6658 -12.7905
ltibia 24.6619
lfoot -19.2229 2.73901
ltoes -56.9792
271
root -0.524116 18.6349 5.88407 -1.81362 11.7912 -1.75046
lowerback 3.65201 4.74653 5.65757
upperback -2.32883 6.75563 2.47571
thorax -4.11017 3.23198 -1.04378
lowerneck -10.4643 -4.9014 -1.24566
upperneck 10.9686 -5.30722 -8.64636
head 4.81294 -3.21702 -2.85734
rclavicle 2.32578e-014 3.33958e-014
rhumerus 26.471 9.49222 -47.8083
rradius 140.46
rwrist -12.9195
rhand -17.0646 -14.6701
rfingers 7.12502
rthumb 9.17297 -44.4506
lclavicle 2.32578e-014 3.33958e-014
lhumerus -48.355 -3.70412 91.8215
lradius 51.8829
lwrist -3.22736
lhand -9.43703 -25.8265
lfingers 7.12502
lthumb 16.5257 3.48976
rfemur 0 0 0
rtibia 0
rfoot 0 0
rtoes 0
lfemur -5.82128 -7.61626 -12.8026
ltibia 24.6541
lfoot -19.2268 2.75478
ltoes -57.0678
272
root -0.522053 18.635 5.88218 -1.78917 11.7597 -1.76972
lowerback 3.66853 4.76116 5.65756
upperback -2.33 6.7762 2.46758
thorax -4.11862 3.24176 -1.05483
lowerneck -10.4529 -4.94254 -1.27664
upperneck 10.9406 -5.35979 -8.6503
head 4.80112 -3.24328 -2.85596
rclavicle 7.25564e-014 2.06736e-014
rhumerus 26.4468 9.45611 -47.8483
rradius 140.469
rwrist -13.05
rhand -16.9067 -14.487
rfingers 7.12502
rthumb 9.32534 -44.2607
lclavicle 7.25564e-014 2.06736e-014
lhumerus -48.319 -3.66525 91.725
lradius 51.881
lwrist -3.2341
lhand -9.43902 -25.7739
lfingers 7.12502
lthumb 16.5238 3.54249
rfemur 0 0 0
rtibia 0
rfoot 0 0
rtoes 0
lfemur -5.8465 -7.57935 -12.7792
ltibia 24.6434
lfoot -19.2332 2.72429
ltoes -57.0555
273
root -0.519994 18.6354 5.88045 -1.75727 11.7646 -1.76687
lowerback 3.69016 4.95726 5.72385
upperback -2.42804 7.03678 2.19666
thorax -4.17704 3.36149 -1.38851
lowerneck -10.1461 -5.13765 -0.524105
upperneck 10.7984 -5.73797 -8.87734
head 4.65716 -3.40352 -3.0548
rclavicle -4.55217e-014 7.95139e-016
rhumerus 25.7494 9.05565 -48.0905
rradius 140.482
rwrist -12.8631
rhand -16.9363 -14.1714
rfingers 7.12502
rthumb 9.2968 -43.9464
lclavicle -4.55217e-014 7.95139e-016
lhumerus -48.3381 -4.47509 91.5323
lradius 51.8278
lwrist -3.11324
lhand -9.36161 -25.887
lfingers 7.12502
lthumb 16.5983 3.42321
rfemur 0 0 0
rtibia 0
rfoot 0 0
rtoes 0
lfemur -5.88605 -7.53412 -12.7737
ltibia 24.6349
lfoot -19.2221 2.64568
ltoes -57.0328
